<svg width="24" height="32" viewBox="0 0 24 32" fill="none" xmlns="http://www.w3.org/2000/svg">
<path d="M17.633 1.34161C15.976 1.89061 14.405 2.44561 13.252 3.59161C12.099 4.73761 11.49 6.44861 11.682 8.93061C11.709 9.32561 12.144 9.64161 12.538 9.55461C14.259 9.17461 15.946 8.50861 17.138 7.27261C18.331 6.03561 18.946 4.21561 18.555 1.87961C18.456 1.33761 18.045 1.22461 17.633 1.34161ZM7.433 9.90961C8.293 9.90961 9.151 10.2726 10.013 10.6956C10.875 11.1176 11.708 11.6316 12.703 11.6316C13.828 11.5266 14.887 11.0456 15.766 10.6846C16.783 10.2706 17.807 9.90961 18.676 9.90961C20.246 9.90961 21.924 10.8956 22.946 11.9446C21.014 13.6246 19.379 15.5986 19.379 17.8326C19.391 20.8546 21.388 22.5076 23.496 23.9676C23.0822 25.6743 22.2984 27.2693 21.2 28.6396C20.046 30.0536 18.675 30.9216 17.62 30.9216C16.723 30.9216 15.956 30.6336 15.183 30.2976C14.411 29.9606 13.639 29.5436 12.702 29.5436C11.765 29.5436 10.93 29.9476 10.067 30.2866C9.204 30.6256 8.33 30.9216 7.432 30.9216C7.037 30.9216 6.309 30.5946 5.522 29.8666C4.734 29.1386 3.88 28.0526 3.117 26.7446C1.593 24.1276 0.405998 20.6066 0.405998 17.1436C0.339998 13.0166 3.854 9.91661 7.433 9.90961Z" fill="black"/>
</svg>
