<svg width="112" height="21" viewBox="0 0 112 21" fill="none" xmlns="http://www.w3.org/2000/svg">
<path d="M0.701 1.222H13.661V2.248H1.889V9.97H12.959V10.996H1.889V19.474H13.796V20.5H0.701V1.222ZM17.1594 1.222H25.3674C25.9074 1.222 26.5014 1.285 27.1494 1.411C27.8154 1.537 28.4274 1.798 28.9854 2.194C29.5614 2.572 30.0384 3.121 30.4164 3.841C30.7944 4.543 30.9834 5.47 30.9834 6.622C30.9834 8.314 30.4614 9.619 29.4174 10.537C28.3734 11.455 26.8794 11.914 24.9354 11.914H18.3474V20.5H17.1594V1.222ZM18.3474 10.888H25.1244C25.9884 10.888 26.7174 10.762 27.3114 10.51C27.9234 10.24 28.4094 9.898 28.7694 9.484C29.1294 9.07 29.3904 8.611 29.5524 8.107C29.7144 7.603 29.7954 7.099 29.7954 6.595C29.7954 6.235 29.7414 5.812 29.6334 5.326C29.5254 4.822 29.3094 4.345 28.9854 3.895C28.6614 3.427 28.2024 3.04 27.6084 2.734C27.0324 2.41 26.2584 2.248 25.2864 2.248H18.3474V10.888ZM34.4615 1.222H35.6495V20.5H34.4615V1.222ZM39.6704 10.861C39.6704 9.457 39.8774 8.143 40.2914 6.919C40.7054 5.677 41.2994 4.606 42.0734 3.706C42.8654 2.788 43.8284 2.068 44.9624 1.546C46.1144 1.024 47.4104 0.763 48.8504 0.763C49.9844 0.763 50.9654 0.915999 51.7934 1.222C52.6214 1.51 53.3144 1.879 53.8724 2.329C54.4484 2.761 54.9164 3.238 55.2764 3.76C55.6364 4.282 55.9064 4.777 56.0864 5.245C56.2844 5.695 56.4194 6.091 56.4914 6.433C56.5634 6.757 56.5994 6.937 56.5994 6.973H55.4114C55.2854 6.163 55.0244 5.443 54.6284 4.813C54.2324 4.165 53.7374 3.616 53.1434 3.166C52.5494 2.716 51.8834 2.374 51.1454 2.14C50.4254 1.906 49.6604 1.789 48.8504 1.789C47.5904 1.789 46.4654 2.032 45.4754 2.518C44.4854 3.004 43.6484 3.661 42.9644 4.489C42.2804 5.299 41.7584 6.253 41.3984 7.351C41.0384 8.449 40.8584 9.619 40.8584 10.861C40.8584 12.103 41.0384 13.273 41.3984 14.371C41.7584 15.469 42.2804 16.432 42.9644 17.26C43.6484 18.07 44.4854 18.718 45.4754 19.204C46.4654 19.69 47.5904 19.933 48.8504 19.933C49.7864 19.933 50.6594 19.744 51.4694 19.366C52.2974 18.97 53.0174 18.457 53.6294 17.827C54.2414 17.179 54.7274 16.441 55.0874 15.613C55.4654 14.767 55.6814 13.894 55.7354 12.994H56.9234C56.8154 14.146 56.5274 15.208 56.0594 16.18C55.6094 17.152 55.0244 17.998 54.3044 18.718C53.6024 19.42 52.7834 19.969 51.8474 20.365C50.9114 20.761 49.9124 20.959 48.8504 20.959C47.4104 20.959 46.1144 20.698 44.9624 20.176C43.8284 19.654 42.8654 18.943 42.0734 18.043C41.2994 17.125 40.7054 16.054 40.2914 14.83C39.8774 13.588 39.6704 12.265 39.6704 10.861ZM61.9482 1.222V12.778C61.9482 13.156 61.9662 13.597 62.0022 14.101C62.0382 14.605 62.1282 15.127 62.2722 15.667C62.4162 16.189 62.6142 16.711 62.8662 17.233C63.1362 17.737 63.4962 18.196 63.9462 18.61C64.3962 19.006 64.9452 19.33 65.5932 19.582C66.2592 19.816 67.0602 19.933 67.9962 19.933C69.1842 19.933 70.1742 19.771 70.9662 19.447C71.7762 19.105 72.4242 18.628 72.9102 18.016C73.4142 17.386 73.7742 16.63 73.9902 15.748C74.2062 14.866 74.3142 13.876 74.3142 12.778V1.222H75.5022V12.778C75.5022 13.93 75.3762 15.001 75.1242 15.991C74.8902 16.981 74.4852 17.845 73.9092 18.583C73.3332 19.321 72.5592 19.906 71.5872 20.338C70.6332 20.752 69.4362 20.959 67.9962 20.959C66.8622 20.959 65.8902 20.815 65.0802 20.527C64.2702 20.239 63.5952 19.87 63.0552 19.42C62.5332 18.952 62.1192 18.421 61.8132 17.827C61.5072 17.233 61.2732 16.639 61.1112 16.045C60.9492 15.433 60.8502 14.848 60.8142 14.29C60.7782 13.714 60.7602 13.21 60.7602 12.778V1.222H61.9482ZM80.2508 1.222H88.2968C89.1428 1.222 89.9348 1.312 90.6728 1.492C91.4108 1.654 92.0588 1.933 92.6168 2.329C93.1748 2.707 93.6068 3.211 93.9128 3.841C94.2368 4.471 94.3988 5.254 94.3988 6.19C94.3988 7.486 94.0298 8.584 93.2918 9.484C92.5718 10.366 91.5638 10.915 90.2678 11.131V11.185C91.1498 11.293 91.8428 11.527 92.3468 11.887C92.8688 12.247 93.2558 12.688 93.5078 13.21C93.7598 13.732 93.9218 14.308 93.9938 14.938C94.0658 15.568 94.1018 16.198 94.1018 16.828C94.1018 17.206 94.1018 17.575 94.1018 17.935C94.1018 18.295 94.1198 18.637 94.1558 18.961C94.1918 19.267 94.2458 19.555 94.3178 19.825C94.4078 20.095 94.5248 20.32 94.6688 20.5H93.3458C93.0938 20.05 92.9498 19.528 92.9138 18.934C92.8958 18.322 92.8868 17.692 92.8868 17.044C92.8868 16.396 92.8598 15.757 92.8058 15.127C92.7518 14.479 92.5808 13.903 92.2928 13.399C92.0048 12.895 91.5458 12.49 90.9158 12.184C90.3038 11.878 89.4308 11.725 88.2968 11.725H81.4388V20.5H80.2508V1.222ZM88.2968 10.699C88.9988 10.699 89.6468 10.618 90.2408 10.456C90.8528 10.276 91.3748 10.006 91.8068 9.646C92.2388 9.286 92.5808 8.827 92.8328 8.269C93.0848 7.711 93.2108 7.045 93.2108 6.271C93.2108 5.551 93.0758 4.939 92.8058 4.435C92.5358 3.913 92.1758 3.49 91.7258 3.166C91.2758 2.842 90.7538 2.608 90.1598 2.464C89.5658 2.32 88.9448 2.248 88.2968 2.248H81.4388V10.699H88.2968ZM98.6076 1.222H111.568V2.248H99.7956V9.97H110.866V10.996H99.7956V19.474H111.703V20.5H98.6076V1.222Z" fill="black"/>
</svg>
