<svg width="410" height="42" viewBox="0 0 410 42" fill="none" xmlns="http://www.w3.org/2000/svg">
<path d="M19.656 12.352H20.34V30.352H19.656V12.352Z" fill="black"/>
<path d="M37.522 18.82C37.498 18.268 37.378 17.788 37.162 17.38C36.958 16.972 36.676 16.63 36.316 16.354C35.956 16.078 35.524 15.874 35.02 15.742C34.528 15.598 33.988 15.526 33.4 15.526C33.04 15.526 32.65 15.568 32.23 15.652C31.822 15.736 31.438 15.886 31.078 16.102C30.73 16.306 30.442 16.588 30.214 16.948C29.986 17.296 29.872 17.734 29.872 18.262C29.872 18.778 29.998 19.198 30.25 19.522C30.502 19.846 30.832 20.11 31.24 20.314C31.648 20.506 32.116 20.662 32.644 20.782C33.172 20.902 33.706 21.016 34.246 21.124C34.798 21.232 35.332 21.364 35.848 21.52C36.376 21.664 36.844 21.868 37.252 22.132C37.672 22.384 38.008 22.72 38.26 23.14C38.512 23.548 38.638 24.064 38.638 24.688C38.638 25.36 38.494 25.924 38.206 26.38C37.918 26.836 37.552 27.208 37.108 27.496C36.676 27.784 36.19 27.988 35.65 28.108C35.122 28.24 34.612 28.306 34.12 28.306C33.364 28.306 32.656 28.222 31.996 28.054C31.336 27.898 30.76 27.64 30.268 27.28C29.776 26.908 29.386 26.434 29.098 25.858C28.822 25.282 28.69 24.58 28.702 23.752H29.494C29.458 24.46 29.56 25.06 29.8 25.552C30.04 26.032 30.37 26.428 30.79 26.74C31.222 27.052 31.726 27.28 32.302 27.424C32.878 27.556 33.484 27.622 34.12 27.622C34.504 27.622 34.912 27.574 35.344 27.478C35.788 27.382 36.19 27.22 36.55 26.992C36.922 26.764 37.228 26.464 37.468 26.092C37.72 25.72 37.846 25.252 37.846 24.688C37.846 24.148 37.72 23.71 37.468 23.374C37.216 23.026 36.88 22.75 36.46 22.546C36.052 22.33 35.584 22.162 35.056 22.042C34.54 21.91 34.006 21.79 33.454 21.682C32.914 21.574 32.38 21.448 31.852 21.304C31.324 21.16 30.856 20.968 30.448 20.728C30.04 20.476 29.71 20.158 29.458 19.774C29.206 19.378 29.08 18.874 29.08 18.262C29.08 17.65 29.206 17.128 29.458 16.696C29.722 16.252 30.058 15.898 30.466 15.634C30.886 15.358 31.354 15.16 31.87 15.04C32.386 14.908 32.896 14.842 33.4 14.842C34.072 14.842 34.696 14.92 35.272 15.076C35.86 15.22 36.37 15.454 36.802 15.778C37.246 16.09 37.6 16.498 37.864 17.002C38.128 17.506 38.278 18.112 38.314 18.82H37.522ZM41.9059 23.464V23.572C41.9059 24.112 41.9779 24.628 42.1219 25.12C42.2659 25.612 42.4759 26.044 42.7519 26.416C43.0399 26.788 43.3939 27.082 43.8139 27.298C44.2459 27.514 44.7439 27.622 45.3079 27.622C46.2319 27.622 46.9639 27.382 47.5039 26.902C48.0439 26.41 48.4159 25.732 48.6199 24.868H49.3039C49.0999 25.948 48.6559 26.776 47.9719 27.352C47.2999 27.928 46.4059 28.216 45.2899 28.216C44.6059 28.216 44.0059 28.096 43.4899 27.856C42.9859 27.604 42.5599 27.268 42.2119 26.848C41.8759 26.416 41.6239 25.912 41.4559 25.336C41.2879 24.748 41.2039 24.118 41.2039 23.446C41.2039 22.798 41.2879 22.18 41.4559 21.592C41.6359 20.992 41.8999 20.47 42.2479 20.026C42.5959 19.57 43.0279 19.21 43.5439 18.946C44.0719 18.67 44.6899 18.532 45.3979 18.532C46.0459 18.532 46.6159 18.652 47.1079 18.892C47.6119 19.132 48.0319 19.462 48.3679 19.882C48.7039 20.29 48.9559 20.77 49.1239 21.322C49.3039 21.862 49.3939 22.444 49.3939 23.068C49.3939 23.128 49.3879 23.2 49.3759 23.284C49.3759 23.356 49.3759 23.416 49.3759 23.464H41.9059ZM48.6919 22.87C48.6679 22.366 48.5839 21.892 48.4399 21.448C48.2959 20.992 48.0799 20.596 47.7919 20.26C47.5159 19.912 47.1739 19.636 46.7659 19.432C46.3699 19.228 45.9139 19.126 45.3979 19.126C44.8459 19.126 44.3599 19.234 43.9399 19.45C43.5199 19.654 43.1659 19.93 42.8779 20.278C42.5899 20.614 42.3679 21.01 42.2119 21.466C42.0559 21.922 41.9599 22.39 41.9239 22.87H48.6919ZM58.3979 26.164H58.3619C58.2539 26.44 58.0979 26.704 57.8939 26.956C57.6899 27.196 57.4379 27.412 57.1379 27.604C56.8499 27.796 56.5199 27.946 56.1479 28.054C55.7759 28.162 55.3679 28.216 54.9239 28.216C53.9399 28.216 53.1779 28.006 52.6379 27.586C52.0979 27.154 51.8279 26.494 51.8279 25.606C51.8279 25.066 51.9359 24.628 52.1519 24.292C52.3679 23.944 52.6379 23.674 52.9619 23.482C53.2979 23.278 53.6639 23.134 54.0599 23.05C54.4679 22.966 54.8579 22.906 55.2299 22.87L56.2919 22.78C56.7839 22.744 57.1679 22.69 57.4439 22.618C57.7319 22.534 57.9479 22.426 58.0919 22.294C58.2359 22.15 58.3259 21.97 58.3619 21.754C58.3979 21.538 58.4159 21.268 58.4159 20.944C58.4159 20.692 58.3679 20.458 58.2719 20.242C58.1759 20.026 58.0259 19.834 57.8219 19.666C57.6179 19.498 57.3539 19.366 57.0299 19.27C56.7059 19.174 56.3099 19.126 55.8419 19.126C55.0139 19.126 54.3419 19.33 53.8259 19.738C53.3219 20.146 53.0459 20.764 52.9979 21.592H52.3139C52.3619 20.572 52.6859 19.81 53.2859 19.306C53.8979 18.79 54.7619 18.532 55.8779 18.532C56.9939 18.532 57.8039 18.754 58.3079 19.198C58.8239 19.63 59.0819 20.2 59.0819 20.908V26.29C59.0819 26.422 59.0819 26.554 59.0819 26.686C59.0939 26.818 59.1179 26.938 59.1539 27.046C59.1899 27.154 59.2499 27.244 59.3339 27.316C59.4179 27.376 59.5379 27.406 59.6939 27.406C59.8139 27.406 59.9819 27.388 60.1979 27.352V27.928C60.0179 27.976 59.8319 28 59.6399 28C59.3639 28 59.1419 27.964 58.9739 27.892C58.8179 27.82 58.6979 27.724 58.6139 27.604C58.5299 27.484 58.4699 27.346 58.4339 27.19C58.4099 27.022 58.3979 26.842 58.3979 26.65V26.164ZM58.3979 22.744C58.2299 22.948 57.9719 23.086 57.6239 23.158C57.2879 23.23 56.9099 23.284 56.4899 23.32L55.3379 23.428C55.0019 23.464 54.6659 23.518 54.3299 23.59C53.9939 23.65 53.6879 23.758 53.4119 23.914C53.1479 24.07 52.9319 24.286 52.7639 24.562C52.5959 24.826 52.5119 25.174 52.5119 25.606C52.5119 26.29 52.7279 26.8 53.1599 27.136C53.5919 27.46 54.1859 27.622 54.9419 27.622C55.7219 27.622 56.3399 27.484 56.7959 27.208C57.2519 26.92 57.5999 26.596 57.8399 26.236C58.0799 25.864 58.2299 25.51 58.2899 25.174C58.3619 24.826 58.3979 24.592 58.3979 24.472V22.744ZM63.2339 20.8H63.2879C63.3719 20.5 63.5219 20.218 63.7379 19.954C63.9659 19.69 64.2359 19.462 64.5479 19.27C64.8719 19.078 65.2259 18.934 65.6099 18.838C66.0059 18.73 66.4139 18.682 66.8339 18.694V19.378C66.4739 19.33 66.0599 19.366 65.5919 19.486C65.1359 19.606 64.6979 19.87 64.2779 20.278C64.1099 20.458 63.9599 20.632 63.8279 20.8C63.7079 20.968 63.6059 21.154 63.5219 21.358C63.4379 21.562 63.3719 21.79 63.3239 22.042C63.2759 22.294 63.2459 22.594 63.2339 22.942V28H62.5499V18.748H63.2339V20.8ZM75.6047 21.61C75.5687 21.202 75.4607 20.842 75.2807 20.53C75.1127 20.218 74.8907 19.96 74.6147 19.756C74.3387 19.552 74.0147 19.396 73.6427 19.288C73.2827 19.18 72.8927 19.126 72.4727 19.126C71.8967 19.126 71.3867 19.246 70.9427 19.486C70.4987 19.714 70.1267 20.026 69.8267 20.422C69.5267 20.806 69.2987 21.25 69.1427 21.754C68.9867 22.246 68.9087 22.756 68.9087 23.284C68.9087 23.908 68.9807 24.484 69.1247 25.012C69.2687 25.54 69.4907 26.002 69.7907 26.398C70.0907 26.782 70.4627 27.082 70.9067 27.298C71.3507 27.514 71.8727 27.622 72.4727 27.622C72.9047 27.622 73.3007 27.55 73.6607 27.406C74.0327 27.262 74.3567 27.064 74.6327 26.812C74.9207 26.56 75.1547 26.26 75.3347 25.912C75.5147 25.552 75.6347 25.162 75.6947 24.742H76.3787C76.3067 25.294 76.1567 25.786 75.9287 26.218C75.7007 26.65 75.4127 27.016 75.0647 27.316C74.7167 27.604 74.3207 27.826 73.8767 27.982C73.4327 28.138 72.9647 28.216 72.4727 28.216C71.7167 28.216 71.0687 28.084 70.5287 27.82C70.0007 27.544 69.5627 27.178 69.2147 26.722C68.8787 26.266 68.6267 25.744 68.4587 25.156C68.3027 24.556 68.2247 23.932 68.2247 23.284C68.2247 22.636 68.3147 22.024 68.4947 21.448C68.6867 20.872 68.9627 20.368 69.3227 19.936C69.6827 19.504 70.1267 19.162 70.6547 18.91C71.1827 18.658 71.7887 18.532 72.4727 18.532C72.9767 18.532 73.4447 18.598 73.8767 18.73C74.3207 18.85 74.7107 19.036 75.0467 19.288C75.3947 19.54 75.6767 19.864 75.8927 20.26C76.1087 20.644 76.2407 21.094 76.2887 21.61H75.6047ZM79.9467 15.148V20.728H79.9827C80.1027 20.38 80.2707 20.074 80.4867 19.81C80.7147 19.534 80.9727 19.3 81.2607 19.108C81.5607 18.916 81.8847 18.772 82.2327 18.676C82.5807 18.58 82.9347 18.532 83.2947 18.532C83.8347 18.532 84.2907 18.598 84.6627 18.73C85.0467 18.862 85.3587 19.036 85.5987 19.252C85.8387 19.468 86.0247 19.714 86.1567 19.99C86.3007 20.254 86.4027 20.524 86.4627 20.8C86.5227 21.076 86.5587 21.346 86.5707 21.61C86.5827 21.862 86.5887 22.084 86.5887 22.276V28H85.9047V22.15C85.9047 21.922 85.8867 21.634 85.8507 21.286C85.8147 20.938 85.7067 20.608 85.5267 20.296C85.3587 19.972 85.0947 19.696 84.7347 19.468C84.3867 19.24 83.9007 19.126 83.2767 19.126C82.7487 19.126 82.2807 19.222 81.8727 19.414C81.4647 19.606 81.1167 19.876 80.8287 20.224C80.5407 20.56 80.3187 20.968 80.1627 21.448C80.0187 21.916 79.9467 22.432 79.9467 22.996V28H79.2627V15.148H79.9467ZM95.1784 19.342V18.748H96.8344V16.84C96.8344 16.516 96.8884 16.24 96.9964 16.012C97.1044 15.772 97.2484 15.58 97.4284 15.436C97.6204 15.292 97.8364 15.184 98.0764 15.112C98.3284 15.04 98.5924 15.004 98.8684 15.004C99.0724 15.004 99.3424 15.034 99.6784 15.094V15.688C99.3424 15.628 99.0724 15.598 98.8684 15.598C98.4844 15.598 98.1604 15.688 97.8964 15.868C97.6444 16.036 97.5184 16.378 97.5184 16.894V18.748H99.4444V19.342H97.5184V28H96.8344V19.342H95.1784ZM101.386 23.374C101.386 22.714 101.476 22.096 101.656 21.52C101.848 20.932 102.124 20.416 102.484 19.972C102.844 19.528 103.288 19.18 103.816 18.928C104.344 18.664 104.95 18.532 105.634 18.532C106.318 18.532 106.924 18.664 107.452 18.928C107.98 19.18 108.424 19.528 108.784 19.972C109.144 20.416 109.414 20.932 109.594 21.52C109.786 22.096 109.882 22.714 109.882 23.374C109.882 24.034 109.786 24.658 109.594 25.246C109.414 25.834 109.144 26.35 108.784 26.794C108.424 27.226 107.98 27.574 107.452 27.838C106.924 28.09 106.318 28.216 105.634 28.216C104.95 28.216 104.344 28.09 103.816 27.838C103.288 27.574 102.844 27.226 102.484 26.794C102.124 26.35 101.848 25.834 101.656 25.246C101.476 24.658 101.386 24.034 101.386 23.374ZM102.07 23.374C102.07 23.926 102.148 24.46 102.304 24.976C102.46 25.48 102.688 25.93 102.988 26.326C103.288 26.722 103.66 27.04 104.104 27.28C104.548 27.508 105.058 27.622 105.634 27.622C106.21 27.622 106.72 27.508 107.164 27.28C107.608 27.04 107.98 26.722 108.28 26.326C108.58 25.93 108.808 25.48 108.964 24.976C109.12 24.46 109.198 23.926 109.198 23.374C109.198 22.822 109.12 22.294 108.964 21.79C108.808 21.274 108.58 20.818 108.28 20.422C107.98 20.026 107.608 19.714 107.164 19.486C106.72 19.246 106.21 19.126 105.634 19.126C105.058 19.126 104.548 19.246 104.104 19.486C103.66 19.714 103.288 20.026 102.988 20.422C102.688 20.818 102.46 21.274 102.304 21.79C102.148 22.294 102.07 22.822 102.07 23.374ZM113.46 20.8H113.514C113.598 20.5 113.748 20.218 113.964 19.954C114.192 19.69 114.462 19.462 114.774 19.27C115.098 19.078 115.452 18.934 115.836 18.838C116.232 18.73 116.64 18.682 117.06 18.694V19.378C116.7 19.33 116.286 19.366 115.818 19.486C115.362 19.606 114.924 19.87 114.504 20.278C114.336 20.458 114.186 20.632 114.054 20.8C113.934 20.968 113.832 21.154 113.748 21.358C113.664 21.562 113.598 21.79 113.55 22.042C113.502 22.294 113.472 22.594 113.46 22.942V28H112.776V18.748H113.46V20.8ZM126.06 20.8H126.114C126.198 20.5 126.348 20.218 126.564 19.954C126.792 19.69 127.062 19.462 127.374 19.27C127.698 19.078 128.052 18.934 128.436 18.838C128.832 18.73 129.24 18.682 129.66 18.694V19.378C129.3 19.33 128.886 19.366 128.418 19.486C127.962 19.606 127.524 19.87 127.104 20.278C126.936 20.458 126.786 20.632 126.654 20.8C126.534 20.968 126.432 21.154 126.348 21.358C126.264 21.562 126.198 21.79 126.15 22.042C126.102 22.294 126.072 22.594 126.06 22.942V28H125.376V18.748H126.06V20.8ZM131.735 23.464V23.572C131.735 24.112 131.807 24.628 131.951 25.12C132.095 25.612 132.305 26.044 132.581 26.416C132.869 26.788 133.223 27.082 133.643 27.298C134.075 27.514 134.573 27.622 135.137 27.622C136.061 27.622 136.793 27.382 137.333 26.902C137.873 26.41 138.245 25.732 138.449 24.868H139.133C138.929 25.948 138.485 26.776 137.801 27.352C137.129 27.928 136.235 28.216 135.119 28.216C134.435 28.216 133.835 28.096 133.319 27.856C132.815 27.604 132.389 27.268 132.041 26.848C131.705 26.416 131.453 25.912 131.285 25.336C131.117 24.748 131.033 24.118 131.033 23.446C131.033 22.798 131.117 22.18 131.285 21.592C131.465 20.992 131.729 20.47 132.077 20.026C132.425 19.57 132.857 19.21 133.373 18.946C133.901 18.67 134.519 18.532 135.227 18.532C135.875 18.532 136.445 18.652 136.937 18.892C137.441 19.132 137.861 19.462 138.197 19.882C138.533 20.29 138.785 20.77 138.953 21.322C139.133 21.862 139.223 22.444 139.223 23.068C139.223 23.128 139.217 23.2 139.205 23.284C139.205 23.356 139.205 23.416 139.205 23.464H131.735ZM138.521 22.87C138.497 22.366 138.413 21.892 138.269 21.448C138.125 20.992 137.909 20.596 137.621 20.26C137.345 19.912 137.003 19.636 136.595 19.432C136.199 19.228 135.743 19.126 135.227 19.126C134.675 19.126 134.189 19.234 133.769 19.45C133.349 19.654 132.995 19.93 132.707 20.278C132.419 20.614 132.197 21.01 132.041 21.466C131.885 21.922 131.789 22.39 131.753 22.87H138.521ZM142.413 24.922C142.437 25.354 142.533 25.738 142.701 26.074C142.869 26.398 143.085 26.68 143.349 26.92C143.625 27.148 143.943 27.322 144.303 27.442C144.663 27.562 145.053 27.622 145.473 27.622C145.773 27.622 146.091 27.598 146.427 27.55C146.775 27.49 147.093 27.388 147.381 27.244C147.681 27.1 147.927 26.902 148.119 26.65C148.311 26.386 148.407 26.056 148.407 25.66C148.407 25.144 148.251 24.754 147.939 24.49C147.627 24.226 147.231 24.022 146.751 23.878C146.283 23.734 145.773 23.62 145.221 23.536C144.681 23.44 144.171 23.302 143.691 23.122C143.223 22.942 142.833 22.69 142.521 22.366C142.209 22.03 142.053 21.544 142.053 20.908C142.053 20.452 142.155 20.074 142.359 19.774C142.563 19.462 142.821 19.216 143.133 19.036C143.457 18.856 143.817 18.73 144.213 18.658C144.609 18.574 145.005 18.532 145.401 18.532C145.881 18.532 146.331 18.586 146.751 18.694C147.171 18.802 147.531 18.976 147.831 19.216C148.143 19.456 148.383 19.762 148.551 20.134C148.731 20.506 148.821 20.956 148.821 21.484H148.137C148.137 21.064 148.065 20.704 147.921 20.404C147.789 20.104 147.597 19.864 147.345 19.684C147.105 19.492 146.817 19.354 146.481 19.27C146.145 19.174 145.785 19.126 145.401 19.126C145.089 19.126 144.771 19.156 144.447 19.216C144.135 19.276 143.853 19.378 143.601 19.522C143.349 19.666 143.139 19.852 142.971 20.08C142.815 20.308 142.737 20.584 142.737 20.908C142.737 21.28 142.827 21.58 143.007 21.808C143.187 22.036 143.421 22.222 143.709 22.366C144.009 22.498 144.339 22.606 144.699 22.69C145.071 22.774 145.443 22.858 145.815 22.942C146.271 23.026 146.697 23.128 147.093 23.248C147.501 23.356 147.849 23.512 148.137 23.716C148.437 23.908 148.671 24.16 148.839 24.472C149.007 24.784 149.091 25.18 149.091 25.66C149.091 26.164 148.977 26.578 148.749 26.902C148.521 27.226 148.233 27.49 147.885 27.694C147.537 27.886 147.147 28.018 146.715 28.09C146.295 28.174 145.881 28.216 145.473 28.216C144.945 28.216 144.453 28.144 143.997 28C143.553 27.868 143.163 27.664 142.827 27.388C142.491 27.1 142.227 26.752 142.035 26.344C141.843 25.936 141.741 25.462 141.729 24.922H142.413ZM155.447 19.342H153.431V25.804C153.431 26.176 153.473 26.47 153.557 26.686C153.641 26.902 153.767 27.07 153.935 27.19C154.115 27.298 154.325 27.364 154.565 27.388C154.817 27.412 155.105 27.418 155.429 27.406V28C155.081 28.024 154.739 28.024 154.403 28C154.079 27.964 153.791 27.874 153.539 27.73C153.287 27.574 153.083 27.346 152.927 27.046C152.783 26.746 152.723 26.332 152.747 25.804V19.342H151.037V18.748H152.747V15.868H153.431V18.748H155.447V19.342ZM164.131 26.164H164.095C163.987 26.44 163.831 26.704 163.627 26.956C163.423 27.196 163.171 27.412 162.871 27.604C162.583 27.796 162.253 27.946 161.881 28.054C161.509 28.162 161.101 28.216 160.657 28.216C159.673 28.216 158.911 28.006 158.371 27.586C157.831 27.154 157.561 26.494 157.561 25.606C157.561 25.066 157.669 24.628 157.885 24.292C158.101 23.944 158.371 23.674 158.695 23.482C159.031 23.278 159.397 23.134 159.793 23.05C160.201 22.966 160.591 22.906 160.963 22.87L162.025 22.78C162.517 22.744 162.901 22.69 163.177 22.618C163.465 22.534 163.681 22.426 163.825 22.294C163.969 22.15 164.059 21.97 164.095 21.754C164.131 21.538 164.149 21.268 164.149 20.944C164.149 20.692 164.101 20.458 164.005 20.242C163.909 20.026 163.759 19.834 163.555 19.666C163.351 19.498 163.087 19.366 162.763 19.27C162.439 19.174 162.043 19.126 161.575 19.126C160.747 19.126 160.075 19.33 159.559 19.738C159.055 20.146 158.779 20.764 158.731 21.592H158.047C158.095 20.572 158.419 19.81 159.019 19.306C159.631 18.79 160.495 18.532 161.611 18.532C162.727 18.532 163.537 18.754 164.041 19.198C164.557 19.63 164.815 20.2 164.815 20.908V26.29C164.815 26.422 164.815 26.554 164.815 26.686C164.827 26.818 164.851 26.938 164.887 27.046C164.923 27.154 164.983 27.244 165.067 27.316C165.151 27.376 165.271 27.406 165.427 27.406C165.547 27.406 165.715 27.388 165.931 27.352V27.928C165.751 27.976 165.565 28 165.373 28C165.097 28 164.875 27.964 164.707 27.892C164.551 27.82 164.431 27.724 164.347 27.604C164.263 27.484 164.203 27.346 164.167 27.19C164.143 27.022 164.131 26.842 164.131 26.65V26.164ZM164.131 22.744C163.963 22.948 163.705 23.086 163.357 23.158C163.021 23.23 162.643 23.284 162.223 23.32L161.071 23.428C160.735 23.464 160.399 23.518 160.063 23.59C159.727 23.65 159.421 23.758 159.145 23.914C158.881 24.07 158.665 24.286 158.497 24.562C158.329 24.826 158.245 25.174 158.245 25.606C158.245 26.29 158.461 26.8 158.893 27.136C159.325 27.46 159.919 27.622 160.675 27.622C161.455 27.622 162.073 27.484 162.529 27.208C162.985 26.92 163.333 26.596 163.573 26.236C163.813 25.864 163.963 25.51 164.023 25.174C164.095 24.826 164.131 24.592 164.131 24.472V22.744ZM175.609 28H174.925V26.02H174.889C174.769 26.368 174.595 26.68 174.367 26.956C174.151 27.22 173.893 27.448 173.593 27.64C173.305 27.832 172.987 27.976 172.639 28.072C172.291 28.168 171.937 28.216 171.577 28.216C171.037 28.216 170.575 28.15 170.191 28.018C169.819 27.886 169.513 27.712 169.273 27.496C169.033 27.28 168.841 27.04 168.697 26.776C168.565 26.5 168.469 26.224 168.409 25.948C168.349 25.672 168.313 25.408 168.301 25.156C168.289 24.892 168.283 24.664 168.283 24.472V18.748H168.967V24.598C168.967 24.838 168.985 25.132 169.021 25.48C169.057 25.816 169.159 26.146 169.327 26.47C169.507 26.782 169.771 27.052 170.119 27.28C170.467 27.508 170.959 27.622 171.595 27.622C172.111 27.622 172.573 27.526 172.981 27.334C173.401 27.142 173.755 26.878 174.043 26.542C174.331 26.194 174.547 25.786 174.691 25.318C174.847 24.838 174.925 24.316 174.925 23.752V18.748H175.609V28ZM179.591 20.8H179.645C179.729 20.5 179.879 20.218 180.095 19.954C180.323 19.69 180.593 19.462 180.905 19.27C181.229 19.078 181.583 18.934 181.967 18.838C182.363 18.73 182.771 18.682 183.191 18.694V19.378C182.831 19.33 182.417 19.366 181.949 19.486C181.493 19.606 181.055 19.87 180.635 20.278C180.467 20.458 180.317 20.632 180.185 20.8C180.065 20.968 179.963 21.154 179.879 21.358C179.795 21.562 179.729 21.79 179.681 22.042C179.633 22.294 179.603 22.594 179.591 22.942V28H178.907V18.748H179.591V20.8ZM190.993 26.164H190.957C190.849 26.44 190.693 26.704 190.489 26.956C190.285 27.196 190.033 27.412 189.733 27.604C189.445 27.796 189.115 27.946 188.743 28.054C188.371 28.162 187.963 28.216 187.519 28.216C186.535 28.216 185.773 28.006 185.233 27.586C184.693 27.154 184.423 26.494 184.423 25.606C184.423 25.066 184.531 24.628 184.747 24.292C184.963 23.944 185.233 23.674 185.557 23.482C185.893 23.278 186.259 23.134 186.655 23.05C187.063 22.966 187.453 22.906 187.825 22.87L188.887 22.78C189.379 22.744 189.763 22.69 190.039 22.618C190.327 22.534 190.543 22.426 190.687 22.294C190.831 22.15 190.921 21.97 190.957 21.754C190.993 21.538 191.011 21.268 191.011 20.944C191.011 20.692 190.963 20.458 190.867 20.242C190.771 20.026 190.621 19.834 190.417 19.666C190.213 19.498 189.949 19.366 189.625 19.27C189.301 19.174 188.905 19.126 188.437 19.126C187.609 19.126 186.937 19.33 186.421 19.738C185.917 20.146 185.641 20.764 185.593 21.592H184.909C184.957 20.572 185.281 19.81 185.881 19.306C186.493 18.79 187.357 18.532 188.473 18.532C189.589 18.532 190.399 18.754 190.903 19.198C191.419 19.63 191.677 20.2 191.677 20.908V26.29C191.677 26.422 191.677 26.554 191.677 26.686C191.689 26.818 191.713 26.938 191.749 27.046C191.785 27.154 191.845 27.244 191.929 27.316C192.013 27.376 192.133 27.406 192.289 27.406C192.409 27.406 192.577 27.388 192.793 27.352V27.928C192.613 27.976 192.427 28 192.235 28C191.959 28 191.737 27.964 191.569 27.892C191.413 27.82 191.293 27.724 191.209 27.604C191.125 27.484 191.065 27.346 191.029 27.19C191.005 27.022 190.993 26.842 190.993 26.65V26.164ZM190.993 22.744C190.825 22.948 190.567 23.086 190.219 23.158C189.883 23.23 189.505 23.284 189.085 23.32L187.933 23.428C187.597 23.464 187.261 23.518 186.925 23.59C186.589 23.65 186.283 23.758 186.007 23.914C185.743 24.07 185.527 24.286 185.359 24.562C185.191 24.826 185.107 25.174 185.107 25.606C185.107 26.29 185.323 26.8 185.755 27.136C186.187 27.46 186.781 27.622 187.537 27.622C188.317 27.622 188.935 27.484 189.391 27.208C189.847 26.92 190.195 26.596 190.435 26.236C190.675 25.864 190.825 25.51 190.885 25.174C190.957 24.826 190.993 24.592 190.993 24.472V22.744ZM195.145 18.748H195.829V20.728H195.865C195.985 20.38 196.153 20.074 196.369 19.81C196.597 19.534 196.855 19.3 197.143 19.108C197.443 18.916 197.767 18.772 198.115 18.676C198.463 18.58 198.817 18.532 199.177 18.532C199.717 18.532 200.173 18.598 200.545 18.73C200.929 18.862 201.241 19.036 201.481 19.252C201.721 19.468 201.907 19.714 202.039 19.99C202.183 20.254 202.285 20.524 202.345 20.8C202.405 21.076 202.441 21.346 202.453 21.61C202.465 21.862 202.471 22.084 202.471 22.276V28H201.787V22.15C201.787 21.922 201.769 21.634 201.733 21.286C201.697 20.938 201.589 20.608 201.409 20.296C201.241 19.972 200.977 19.696 200.617 19.468C200.269 19.24 199.783 19.126 199.159 19.126C198.631 19.126 198.163 19.222 197.755 19.414C197.347 19.606 196.999 19.876 196.711 20.224C196.423 20.56 196.201 20.968 196.045 21.448C195.901 21.916 195.829 22.432 195.829 22.996V28H195.145V18.748ZM209.171 19.342H207.155V25.804C207.155 26.176 207.197 26.47 207.281 26.686C207.365 26.902 207.491 27.07 207.659 27.19C207.839 27.298 208.049 27.364 208.289 27.388C208.541 27.412 208.829 27.418 209.153 27.406V28C208.805 28.024 208.463 28.024 208.127 28C207.803 27.964 207.515 27.874 207.263 27.73C207.011 27.574 206.807 27.346 206.651 27.046C206.507 26.746 206.447 26.332 206.471 25.804V19.342H204.761V18.748H206.471V15.868H207.155V18.748H209.171V19.342ZM224.983 21.61C224.947 21.202 224.839 20.842 224.659 20.53C224.491 20.218 224.269 19.96 223.993 19.756C223.717 19.552 223.393 19.396 223.021 19.288C222.661 19.18 222.271 19.126 221.851 19.126C221.275 19.126 220.765 19.246 220.321 19.486C219.877 19.714 219.505 20.026 219.205 20.422C218.905 20.806 218.677 21.25 218.521 21.754C218.365 22.246 218.287 22.756 218.287 23.284C218.287 23.908 218.359 24.484 218.503 25.012C218.647 25.54 218.869 26.002 219.169 26.398C219.469 26.782 219.841 27.082 220.285 27.298C220.729 27.514 221.251 27.622 221.851 27.622C222.283 27.622 222.679 27.55 223.039 27.406C223.411 27.262 223.735 27.064 224.011 26.812C224.299 26.56 224.533 26.26 224.713 25.912C224.893 25.552 225.013 25.162 225.073 24.742H225.757C225.685 25.294 225.535 25.786 225.307 26.218C225.079 26.65 224.791 27.016 224.443 27.316C224.095 27.604 223.699 27.826 223.255 27.982C222.811 28.138 222.343 28.216 221.851 28.216C221.095 28.216 220.447 28.084 219.907 27.82C219.379 27.544 218.941 27.178 218.593 26.722C218.257 26.266 218.005 25.744 217.837 25.156C217.681 24.556 217.603 23.932 217.603 23.284C217.603 22.636 217.693 22.024 217.873 21.448C218.065 20.872 218.341 20.368 218.701 19.936C219.061 19.504 219.505 19.162 220.033 18.91C220.561 18.658 221.167 18.532 221.851 18.532C222.355 18.532 222.823 18.598 223.255 18.73C223.699 18.85 224.089 19.036 224.425 19.288C224.773 19.54 225.055 19.864 225.271 20.26C225.487 20.644 225.619 21.094 225.667 21.61H224.983ZM235.967 28H235.283V26.02H235.247C235.127 26.368 234.953 26.68 234.725 26.956C234.509 27.22 234.251 27.448 233.951 27.64C233.663 27.832 233.345 27.976 232.997 28.072C232.649 28.168 232.295 28.216 231.935 28.216C231.395 28.216 230.933 28.15 230.549 28.018C230.177 27.886 229.871 27.712 229.631 27.496C229.391 27.28 229.199 27.04 229.055 26.776C228.923 26.5 228.827 26.224 228.767 25.948C228.707 25.672 228.671 25.408 228.659 25.156C228.647 24.892 228.641 24.664 228.641 24.472V18.748H229.325V24.598C229.325 24.838 229.343 25.132 229.379 25.48C229.415 25.816 229.517 26.146 229.685 26.47C229.865 26.782 230.129 27.052 230.477 27.28C230.825 27.508 231.317 27.622 231.953 27.622C232.469 27.622 232.931 27.526 233.339 27.334C233.759 27.142 234.113 26.878 234.401 26.542C234.689 26.194 234.905 25.786 235.049 25.318C235.205 24.838 235.283 24.316 235.283 23.752V18.748H235.967V28ZM239.427 17.002V15.148H240.111V17.002H239.427ZM239.427 28V18.748H240.111V28H239.427ZM243.902 24.922C243.926 25.354 244.022 25.738 244.19 26.074C244.358 26.398 244.574 26.68 244.838 26.92C245.114 27.148 245.432 27.322 245.792 27.442C246.152 27.562 246.542 27.622 246.962 27.622C247.262 27.622 247.58 27.598 247.916 27.55C248.264 27.49 248.582 27.388 248.87 27.244C249.17 27.1 249.416 26.902 249.608 26.65C249.8 26.386 249.896 26.056 249.896 25.66C249.896 25.144 249.74 24.754 249.428 24.49C249.116 24.226 248.72 24.022 248.24 23.878C247.772 23.734 247.262 23.62 246.71 23.536C246.17 23.44 245.66 23.302 245.18 23.122C244.712 22.942 244.322 22.69 244.01 22.366C243.698 22.03 243.542 21.544 243.542 20.908C243.542 20.452 243.644 20.074 243.848 19.774C244.052 19.462 244.31 19.216 244.622 19.036C244.946 18.856 245.306 18.73 245.702 18.658C246.098 18.574 246.494 18.532 246.89 18.532C247.37 18.532 247.82 18.586 248.24 18.694C248.66 18.802 249.02 18.976 249.32 19.216C249.632 19.456 249.872 19.762 250.04 20.134C250.22 20.506 250.31 20.956 250.31 21.484H249.626C249.626 21.064 249.554 20.704 249.41 20.404C249.278 20.104 249.086 19.864 248.834 19.684C248.594 19.492 248.306 19.354 247.97 19.27C247.634 19.174 247.274 19.126 246.89 19.126C246.578 19.126 246.26 19.156 245.936 19.216C245.624 19.276 245.342 19.378 245.09 19.522C244.838 19.666 244.628 19.852 244.46 20.08C244.304 20.308 244.226 20.584 244.226 20.908C244.226 21.28 244.316 21.58 244.496 21.808C244.676 22.036 244.91 22.222 245.198 22.366C245.498 22.498 245.828 22.606 246.188 22.69C246.56 22.774 246.932 22.858 247.304 22.942C247.76 23.026 248.186 23.128 248.582 23.248C248.99 23.356 249.338 23.512 249.626 23.716C249.926 23.908 250.16 24.16 250.328 24.472C250.496 24.784 250.58 25.18 250.58 25.66C250.58 26.164 250.466 26.578 250.238 26.902C250.01 27.226 249.722 27.49 249.374 27.694C249.026 27.886 248.636 28.018 248.204 28.09C247.784 28.174 247.37 28.216 246.962 28.216C246.434 28.216 245.942 28.144 245.486 28C245.042 27.868 244.652 27.664 244.316 27.388C243.98 27.1 243.716 26.752 243.524 26.344C243.332 25.936 243.23 25.462 243.218 24.922H243.902ZM253.696 17.002V15.148H254.38V17.002H253.696ZM253.696 28V18.748H254.38V28H253.696ZM257.848 18.748H258.532V20.728H258.568C258.688 20.38 258.856 20.074 259.072 19.81C259.3 19.534 259.558 19.3 259.846 19.108C260.146 18.916 260.47 18.772 260.818 18.676C261.166 18.58 261.52 18.532 261.88 18.532C262.42 18.532 262.876 18.598 263.248 18.73C263.632 18.862 263.944 19.036 264.184 19.252C264.424 19.468 264.61 19.714 264.742 19.99C264.886 20.254 264.988 20.524 265.048 20.8C265.108 21.076 265.144 21.346 265.156 21.61C265.168 21.862 265.174 22.084 265.174 22.276V28H264.49V22.15C264.49 21.922 264.472 21.634 264.436 21.286C264.4 20.938 264.292 20.608 264.112 20.296C263.944 19.972 263.68 19.696 263.32 19.468C262.972 19.24 262.486 19.126 261.862 19.126C261.334 19.126 260.866 19.222 260.458 19.414C260.05 19.606 259.702 19.876 259.414 20.224C259.126 20.56 258.904 20.968 258.748 21.448C258.604 21.916 258.532 22.432 258.532 22.996V28H257.848V18.748ZM268.742 23.464V23.572C268.742 24.112 268.814 24.628 268.958 25.12C269.102 25.612 269.312 26.044 269.588 26.416C269.876 26.788 270.23 27.082 270.65 27.298C271.082 27.514 271.58 27.622 272.144 27.622C273.068 27.622 273.8 27.382 274.34 26.902C274.88 26.41 275.252 25.732 275.456 24.868H276.14C275.936 25.948 275.492 26.776 274.808 27.352C274.136 27.928 273.242 28.216 272.126 28.216C271.442 28.216 270.842 28.096 270.326 27.856C269.822 27.604 269.396 27.268 269.048 26.848C268.712 26.416 268.46 25.912 268.292 25.336C268.124 24.748 268.04 24.118 268.04 23.446C268.04 22.798 268.124 22.18 268.292 21.592C268.472 20.992 268.736 20.47 269.084 20.026C269.432 19.57 269.864 19.21 270.38 18.946C270.908 18.67 271.526 18.532 272.234 18.532C272.882 18.532 273.452 18.652 273.944 18.892C274.448 19.132 274.868 19.462 275.204 19.882C275.54 20.29 275.792 20.77 275.96 21.322C276.14 21.862 276.23 22.444 276.23 23.068C276.23 23.128 276.224 23.2 276.212 23.284C276.212 23.356 276.212 23.416 276.212 23.464H268.742ZM275.528 22.87C275.504 22.366 275.42 21.892 275.276 21.448C275.132 20.992 274.916 20.596 274.628 20.26C274.352 19.912 274.01 19.636 273.602 19.432C273.206 19.228 272.75 19.126 272.234 19.126C271.682 19.126 271.196 19.234 270.776 19.45C270.356 19.654 270.002 19.93 269.714 20.278C269.426 20.614 269.204 21.01 269.048 21.466C268.892 21.922 268.796 22.39 268.76 22.87H275.528ZM280.122 26.146H281.04V28C281.04 28.24 281.022 28.474 280.986 28.702C280.95 28.942 280.884 29.164 280.788 29.368C280.704 29.572 280.584 29.752 280.428 29.908C280.284 30.064 280.104 30.184 279.888 30.268V29.674C280.02 29.614 280.122 29.512 280.194 29.368C280.278 29.236 280.344 29.086 280.392 28.918C280.44 28.762 280.47 28.6 280.482 28.432C280.494 28.264 280.5 28.12 280.5 28H280.122V26.146ZM298.661 21.61C298.625 21.202 298.517 20.842 298.337 20.53C298.169 20.218 297.947 19.96 297.671 19.756C297.395 19.552 297.071 19.396 296.699 19.288C296.339 19.18 295.949 19.126 295.529 19.126C294.953 19.126 294.443 19.246 293.999 19.486C293.555 19.714 293.183 20.026 292.883 20.422C292.583 20.806 292.355 21.25 292.199 21.754C292.043 22.246 291.965 22.756 291.965 23.284C291.965 23.908 292.037 24.484 292.181 25.012C292.325 25.54 292.547 26.002 292.847 26.398C293.147 26.782 293.519 27.082 293.963 27.298C294.407 27.514 294.929 27.622 295.529 27.622C295.961 27.622 296.357 27.55 296.717 27.406C297.089 27.262 297.413 27.064 297.689 26.812C297.977 26.56 298.211 26.26 298.391 25.912C298.571 25.552 298.691 25.162 298.751 24.742H299.435C299.363 25.294 299.213 25.786 298.985 26.218C298.757 26.65 298.469 27.016 298.121 27.316C297.773 27.604 297.377 27.826 296.933 27.982C296.489 28.138 296.021 28.216 295.529 28.216C294.773 28.216 294.125 28.084 293.585 27.82C293.057 27.544 292.619 27.178 292.271 26.722C291.935 26.266 291.683 25.744 291.515 25.156C291.359 24.556 291.281 23.932 291.281 23.284C291.281 22.636 291.371 22.024 291.551 21.448C291.743 20.872 292.019 20.368 292.379 19.936C292.739 19.504 293.183 19.162 293.711 18.91C294.239 18.658 294.845 18.532 295.529 18.532C296.033 18.532 296.501 18.598 296.933 18.73C297.377 18.85 297.767 19.036 298.103 19.288C298.451 19.54 298.733 19.864 298.949 20.26C299.165 20.644 299.297 21.094 299.345 21.61H298.661ZM303.003 15.148V20.728H303.039C303.159 20.38 303.327 20.074 303.543 19.81C303.771 19.534 304.029 19.3 304.317 19.108C304.617 18.916 304.941 18.772 305.289 18.676C305.637 18.58 305.991 18.532 306.351 18.532C306.891 18.532 307.347 18.598 307.719 18.73C308.103 18.862 308.415 19.036 308.655 19.252C308.895 19.468 309.081 19.714 309.213 19.99C309.357 20.254 309.459 20.524 309.519 20.8C309.579 21.076 309.615 21.346 309.627 21.61C309.639 21.862 309.645 22.084 309.645 22.276V28H308.961V22.15C308.961 21.922 308.943 21.634 308.907 21.286C308.871 20.938 308.763 20.608 308.583 20.296C308.415 19.972 308.151 19.696 307.791 19.468C307.443 19.24 306.957 19.126 306.333 19.126C305.805 19.126 305.337 19.222 304.929 19.414C304.521 19.606 304.173 19.876 303.885 20.224C303.597 20.56 303.375 20.968 303.219 21.448C303.075 21.916 303.003 22.432 303.003 22.996V28H302.319V15.148H303.003ZM313.213 23.464V23.572C313.213 24.112 313.285 24.628 313.429 25.12C313.573 25.612 313.783 26.044 314.059 26.416C314.347 26.788 314.701 27.082 315.121 27.298C315.553 27.514 316.051 27.622 316.615 27.622C317.539 27.622 318.271 27.382 318.811 26.902C319.351 26.41 319.723 25.732 319.927 24.868H320.611C320.407 25.948 319.963 26.776 319.279 27.352C318.607 27.928 317.713 28.216 316.597 28.216C315.913 28.216 315.313 28.096 314.797 27.856C314.293 27.604 313.867 27.268 313.519 26.848C313.183 26.416 312.931 25.912 312.763 25.336C312.595 24.748 312.511 24.118 312.511 23.446C312.511 22.798 312.595 22.18 312.763 21.592C312.943 20.992 313.207 20.47 313.555 20.026C313.903 19.57 314.335 19.21 314.851 18.946C315.379 18.67 315.997 18.532 316.705 18.532C317.353 18.532 317.923 18.652 318.415 18.892C318.919 19.132 319.339 19.462 319.675 19.882C320.011 20.29 320.263 20.77 320.431 21.322C320.611 21.862 320.701 22.444 320.701 23.068C320.701 23.128 320.695 23.2 320.683 23.284C320.683 23.356 320.683 23.416 320.683 23.464H313.213ZM319.999 22.87C319.975 22.366 319.891 21.892 319.747 21.448C319.603 20.992 319.387 20.596 319.099 20.26C318.823 19.912 318.481 19.636 318.073 19.432C317.677 19.228 317.221 19.126 316.705 19.126C316.153 19.126 315.667 19.234 315.247 19.45C314.827 19.654 314.473 19.93 314.185 20.278C313.897 20.614 313.675 21.01 313.519 21.466C313.363 21.922 313.267 22.39 313.231 22.87H319.999ZM322.559 19.342V18.748H324.215V16.84C324.215 16.516 324.269 16.24 324.377 16.012C324.485 15.772 324.629 15.58 324.809 15.436C325.001 15.292 325.217 15.184 325.457 15.112C325.709 15.04 325.973 15.004 326.249 15.004C326.453 15.004 326.723 15.034 327.059 15.094V15.688C326.723 15.628 326.453 15.598 326.249 15.598C325.865 15.598 325.541 15.688 325.277 15.868C325.025 16.036 324.899 16.378 324.899 16.894V18.748H326.825V19.342H324.899V28H324.215V19.342H322.559Z" fill="black"/>
<g clip-path="url(#clip0_130_5915)">
<path d="M382.725 9C377.913 9 374 12.9074 374 17.7135C374 22.5197 377.913 26.4271 382.725 26.4271C385.022 26.4271 387.103 25.529 388.655 24.1014L397.474 32.9071C397.535 32.969 397.628 33 397.69 33C397.752 33 397.845 32.969 397.907 32.9071C398.031 32.7832 398.031 32.5966 397.907 32.4735L389.09 23.6346C390.549 22.0839 391.419 20.0067 391.419 17.712C391.45 12.9066 387.538 9 382.725 9ZM388.531 23.3566C388.5 23.3566 388.469 23.3876 388.438 23.4186C388.406 23.4495 388.406 23.4805 388.376 23.5115C386.867 24.9889 384.837 25.813 382.725 25.8054C378.253 25.8054 374.621 22.1783 374.621 17.7135C374.621 13.248 378.253 9.61935 382.725 9.61935C387.195 9.61935 390.829 13.2465 390.829 17.7128C390.835 19.8226 390.009 21.8496 388.531 23.3551V23.3566Z" fill="black"/>
<path fill-rule="evenodd" clip-rule="evenodd" d="M382.061 11.3228C381.869 11.3228 381.742 11.4497 381.742 11.6417C381.742 11.8329 381.869 11.9599 382.061 11.9599C385.788 11.9599 388.847 14.987 388.847 18.7457C388.847 18.9377 388.974 19.0647 389.165 19.0647C389.357 19.0647 389.484 18.9377 389.484 18.7457C389.483 14.668 386.138 11.3228 382.061 11.3228Z" fill="black"/>
</g>
<rect x="0.25" y="0.75" width="409.5" height="40.5" rx="3.75" stroke="black" stroke-width="0.5"/>
<defs>
<clipPath id="clip0_130_5915">
<rect width="24" height="24" fill="white" transform="translate(374 9)"/>
</clipPath>
</defs>
</svg>
